<?xml version="1.0" encoding="UTF-8"?>
<svg version="1.1" xmlns="http://www.w3.org/2000/svg" width="120" height="119">
<path d="M0 0 C4.14646958 1.89262902 8.0521318 4.13578132 11.9375 6.51171875 C12.54432617 6.87507324 13.15115234 7.23842773 13.77636719 7.61279297 C27.1409552 15.74823822 34.77767881 25.66857455 38.54296875 40.97265625 C40.85767402 55.86927432 37.38075498 71.916808 28.9375 84.51171875 C23.20569645 91.61356314 15.47288472 94.04474047 6.9375 96.51171875 C5.79796875 96.84429687 4.6584375 97.176875 3.484375 97.51953125 C-13.05930536 101.71210778 -28.70681682 98.76714141 -43.625 90.76171875 C-52.73815877 84.78686631 -56.35891105 74.69884193 -59.0625 64.51171875 C-61.60871353 49.4659115 -59.05955692 36.43594509 -51.0625 23.51171875 C-45.94095829 16.3834911 -39.56541616 11.27051273 -32.24609375 6.5625 C-30.30099425 5.3095218 -28.38648701 4.00497021 -26.53515625 2.6171875 C-18.47546546 -3.109082 -9.08657735 -3.66907622 0 0 Z " fill="currentColor" transform="translate(80.0625,1.48828125)"/>
<path d="M0 0 C2.75 2.4375 2.75 2.4375 5 5 C8.22760391 6.61380195 10.40579169 6.39935648 14 6 C16.19835491 4.62956434 16.19835491 4.62956434 18.375 2.9375 C21.51456328 0.69798016 23.42213492 -0.46971589 27.3125 -0.125 C29.53125 0.31640625 29.53125 0.31640625 32 1 C33.0209375 1.27714844 34.041875 1.55429687 35.09375 1.83984375 C41.34157303 3.72783882 45.43474195 5.26648748 49.2265625 10.78515625 C50.35857955 14.02684144 50.34106442 17.01340038 50.375 20.4375 C50.40335937 21.73558594 50.43171875 23.03367187 50.4609375 24.37109375 C49.92570166 28.58494203 49.02327729 30.07474706 46 33 C42.26667306 35.64002532 39.6962786 36.38670021 35.14331055 36.45166016 C33.41077278 36.48521103 33.41077278 36.48521103 31.64323425 36.5194397 C30.40358414 36.52591522 29.16393402 36.53239075 27.88671875 36.5390625 C26.60320023 36.55141937 25.3196817 36.56377625 23.99726868 36.57650757 C21.28302711 36.59893909 18.56906534 36.60853268 15.85473633 36.61083984 C12.3941344 36.61611546 8.9358922 36.66741018 5.47592449 36.73035622 C2.15452366 36.78131174 -1.16650072 36.78185902 -4.48828125 36.7890625 C-6.33864738 36.82913925 -6.33864738 36.82913925 -8.22639465 36.87002563 C-15.34858451 36.81403585 -19.45216351 35.95994317 -24.63499451 30.93762207 C-27.10934863 27.42528224 -27.01203629 24.03310215 -26.75 19.875 C-26.74742188 19.08996094 -26.74484375 18.30492188 -26.7421875 17.49609375 C-26.6299961 13.80001037 -26.23553823 11.43142555 -24.4453125 8.15234375 C-21.25171146 5.34136265 -18.10814956 4.07246668 -14.125 2.6875 C-13.43019531 2.42388672 -12.73539063 2.16027344 -12.01953125 1.88867188 C-7.9247722 0.40422533 -4.41057219 -0.5303034 0 0 Z " fill="currentColor" transform="translate(58,56)"/>
<path d="M0 0 C7.88523664 3.28440717 13.93337316 8.42766037 18 16 C18.64403965 18.89615314 19.11885473 21.76603421 19.5078125 24.70703125 C19.75144531 25.84205078 19.75144531 25.84205078 20 27 C20.66 27.33 21.32 27.66 22 28 C21.07262912 33.60083202 20.23521728 37.89713326 16 42 C15.34 42 14.68 42 14 42 C13.773125 42.70125 13.54625 43.4025 13.3125 44.125 C11.08978227 48.99381027 8.09009157 53.06896876 3 55 C-2.84008239 55.64889804 -8.20289085 55.85126223 -13.5625 53.3125 C-20.26629834 46.95248619 -20.26629834 46.95248619 -21 42 C-21.598125 41.9175 -22.19625 41.835 -22.8125 41.75 C-25.78712675 40.73012797 -26.50716447 39.77240884 -28 37 C-28.53286246 34.32031665 -28.77231828 31.73218063 -29 29 C-28.34 28.67 -27.68 28.34 -27 28 C-26.68157242 25.80049097 -26.4457467 23.58880201 -26.25 21.375 C-25.12487962 13.02542247 -22.93181891 10.02539959 -16.44140625 5.03125 C-10.78729719 1.07886308 -6.89484475 -1.33448608 0 0 Z " fill="currentColor" transform="translate(73,0)"/>
<path d="M0 0 C1.77870403 2.62647188 2.96446533 5.45688218 4.1875 8.375 C4.86670002 9.92526444 5.54762506 11.47477453 6.23046875 13.0234375 C6.52332764 13.71356934 6.81618652 14.40370117 7.11791992 15.11474609 C8.06224051 17.25565515 8.06224051 17.25565515 10 20 C10 22.97 10 25.94 10 29 C3.4 29 -3.2 29 -10 29 C-10 21.41 -10 13.82 -10 6 C-10.99 6 -11.98 6 -13 6 C-13 13.26 -13 20.52 -13 28 C-15.64 28 -18.28 28 -21 28 C-22.75954931 24.48090138 -22.31190375 20.50255144 -22.375 16.625 C-22.41238281 15.76132813 -22.44976562 14.89765625 -22.48828125 14.0078125 C-22.57645565 7.65925564 -22.57645565 7.65925564 -19.8515625 4.54296875 C-16.93110913 2.96272343 -14.15355136 1.72929822 -11 0.6875 C-9.4840625 0.16736328 -9.4840625 0.16736328 -7.9375 -0.36328125 C-3.02105888 -1.42894601 -3.02105888 -1.42894601 0 0 Z " fill="currentColor" transform="translate(57,60)"/>
<path d="M0 0 C1.32 0.66 2.64 1.32 4 2 C3.67 3.65 3.34 5.3 3 7 C3.66 7 4.32 7 5 7 C5 5.35 5 3.7 5 2 C11.26587945 2.94112023 16.04618438 3.93533077 21 8 C22.70913373 11.41826747 22.18458479 15.23354763 22.1875 19 C22.20586914 20.24910156 22.20586914 20.24910156 22.22460938 21.5234375 C22.22654297 22.32007812 22.22847656 23.11671875 22.23046875 23.9375 C22.23457764 24.66839844 22.23868652 25.39929688 22.24291992 26.15234375 C22 28 22 28 20 30 C17.36 30 14.72 30 12 30 C12 22.08 12 14.16 12 6 C11.34 6 10.68 6 10 6 C10 10.29 10 14.58 10 19 C4.39 19 -1.22 19 -7 19 C-7 20.65 -7 22.3 -7 24 C-1.39 24 4.22 24 10 24 C10.33 26.31 10.66 28.62 11 31 C3.08 31 -4.84 31 -13 31 C-13 19.52833797 -13 19.52833797 -8.1875 13.25 C-7.28206802 12.00745283 -6.37966819 10.76268992 -5.48046875 9.515625 C-5.0529834 8.92974609 -4.62549805 8.34386719 -4.18505859 7.74023438 C-2.51526052 5.28816996 -1.24136165 2.68892955 0 0 Z " fill="currentColor" transform="translate(83,58)"/>
<path d="M0 0 C0.99 0.33 1.98 0.66 3 1 C3 1.66 3 2.32 3 3 C3.99 2.34 4.98 1.68 6 1 C6.99 1 7.98 1 9 1 C9.33 4.63 9.66 8.26 10 12 C10.66 12 11.32 12 12 12 C12 9.03 12 6.06 12 3 C15.48530454 4.74265227 17.13015019 5.81653871 19.6875 8.5625 C20.28949219 9.18253906 20.89148438 9.80257813 21.51171875 10.44140625 C23 13 23 13 24 22 C10.8 22.33 -2.4 22.66 -16 23 C-16 16.66137196 -15.74940283 13.74635388 -12 9 C-5.94713656 3 -5.94713656 3 -4 3 C-4 6.3 -4 9.6 -4 13 C-3.34 12.67 -2.68 12.34 -2 12 C-1.56947737 9.44648887 -1.56947737 9.44648887 -1.4375 6.5 C-1.09628611 1.09628611 -1.09628611 1.09628611 0 0 Z " fill="currentColor" transform="translate(65,3)"/>
<path d="M0 0 C10.56 0 21.12 0 32 0 C32 9.62068966 32 9.62068966 29 15 C24.9432069 18.95003539 21.22978524 20.75224608 15.625 21.375 C11.23591355 20.92095657 8.41522728 19.77116457 5 17 C0.26349611 10.89240288 0 8.05784887 0 0 Z " fill="currentColor" transform="translate(53,32)"/>
<path d="M0 0 C3.6323409 1.65584281 5.68485699 3.75415243 7.92578125 7.015625 C9.0577983 10.25731019 9.04028317 13.24386913 9.07421875 16.66796875 C9.10257812 17.96605469 9.1309375 19.26414062 9.16015625 20.6015625 C8.62492041 24.81541078 7.72249604 26.30521581 4.69921875 29.23046875 C0.90511731 31.9344616 -1.64771761 32.60083104 -6.28442383 32.57104492 C-7.46527054 32.57081833 -8.64611725 32.57059174 -9.86274719 32.57035828 C-11.75986702 32.54713249 -11.75986702 32.54713249 -13.6953125 32.5234375 C-14.99780441 32.51919266 -16.30029633 32.51494781 -17.64225769 32.51057434 C-21.09310392 32.49915887 -24.54356708 32.46972092 -27.9942627 32.4364624 C-31.52021097 32.40568983 -35.04622157 32.39205372 -38.57226562 32.37695312 C-45.48192749 32.34484743 -52.39133594 32.29369156 -59.30078125 32.23046875 C-59.30078125 31.90046875 -59.30078125 31.57046875 -59.30078125 31.23046875 C-42.14078125 30.90046875 -24.98078125 30.57046875 -7.30078125 30.23046875 C-6.03725811 26.96694561 -6.03725811 26.96694561 -6.30078125 22.23046875 C-11.91078125 22.23046875 -17.52078125 22.23046875 -23.30078125 22.23046875 C-23.30078125 20.58046875 -23.30078125 18.93046875 -23.30078125 17.23046875 C-17.69078125 17.23046875 -12.08078125 17.23046875 -6.30078125 17.23046875 C-6.30078125 12.94046875 -6.30078125 8.65046875 -6.30078125 4.23046875 C-5.64078125 4.23046875 -4.98078125 4.23046875 -4.30078125 4.23046875 C-4.30078125 12.15046875 -4.30078125 20.07046875 -4.30078125 28.23046875 C2.9829547 28.15137967 2.9829547 28.15137967 4.69921875 26.23046875 C4.8798348 23.27843269 4.97739454 20.37213912 5.01171875 17.41796875 C5.04072266 16.59748047 5.06972656 15.77699219 5.09960938 14.93164062 C5.16003626 10.07533076 5.16003626 10.07533076 3.0703125 5.796875 C0.26987913 3.94683582 -2.34119935 2.95729802 -5.55078125 1.98046875 C-6.6284375 1.6453125 -7.70609375 1.31015625 -8.81640625 0.96484375 C-9.63625 0.7225 -10.45609375 0.48015625 -11.30078125 0.23046875 C-11.30078125 1.88046875 -11.30078125 3.53046875 -11.30078125 5.23046875 C-11.96078125 5.23046875 -12.62078125 5.23046875 -13.30078125 5.23046875 C-13.23890625 4.44671875 -13.17703125 3.66296875 -13.11328125 2.85546875 C-13.17515625 1.98921875 -13.23703125 1.12296875 -13.30078125 0.23046875 C-14.29078125 -0.42953125 -15.28078125 -1.08953125 -16.30078125 -1.76953125 C-16.96078125 -0.44953125 -17.62078125 0.87046875 -18.30078125 2.23046875 C-18.96078125 1.90046875 -19.62078125 1.57046875 -20.30078125 1.23046875 C-20.96078125 2.55046875 -21.62078125 3.87046875 -22.30078125 5.23046875 C-22.96078125 5.23046875 -23.62078125 5.23046875 -24.30078125 5.23046875 C-24.36265625 5.91109375 -24.42453125 6.59171875 -24.48828125 7.29296875 C-25.5861698 11.26225812 -27.791021 14.0168643 -30.30078125 17.23046875 C-36.30078125 9.83046875 -36.30078125 9.83046875 -36.30078125 5.23046875 C-35.41326172 5.28267578 -35.41326172 5.28267578 -34.5078125 5.3359375 C-29.65334567 5.50224061 -26.15491232 5.58729259 -22.30078125 2.23046875 C-22.30078125 1.24046875 -22.30078125 0.25046875 -22.30078125 -0.76953125 C-17.04755648 -7.16476141 -6.44049953 -2.06264364 0 0 Z " fill="currentColor" transform="translate(99.30078125,59.76953125)"/>
<path d="M0 0 C3.48530454 1.74265227 5.13015019 2.81653871 7.6875 5.5625 C8.28949219 6.18253906 8.89148438 6.80257813 9.51171875 7.44140625 C11 10 11 10 12 19 C-1.2 19.33 -14.4 19.66 -28 20 C-28 17.69 -28 15.38 -28 13 C-27.67 13.99 -27.34 14.98 -27 16 C-26.05125 15.79375 -25.1025 15.5875 -24.125 15.375 C-23.09375 15.25125 -22.0625 15.1275 -21 15 C-20.34 15.66 -19.68 16.32 -19 17 C-16.0906442 17.14517744 -13.280054 17.18630796 -10.375 17.125 C-9.57320312 17.11597656 -8.77140625 17.10695313 -7.9453125 17.09765625 C-5.96341477 17.07406223 -3.98167019 17.03819065 -2 17 C-2 16.01 -2 15.02 -2 14 C-2.99 14.495 -2.99 14.495 -4 15 C-6.125 14.0625 -6.125 14.0625 -8 13 C-7.34 12.67 -6.68 12.34 -6 12 C-5.09656316 10.11736119 -5.09656316 10.11736119 -4.375 7.9375 C-4.11460938 7.20402344 -3.85421875 6.47054688 -3.5859375 5.71484375 C-3.39257812 5.14894531 -3.19921875 4.58304688 -3 4 C-2.67 4 -2.34 4 -2 4 C-2 5.65 -2 7.3 -2 9 C-1.34 9 -0.68 9 0 9 C0 6.03 0 3.06 0 0 Z " fill="currentColor" transform="translate(77,6)"/>
<path d="M0 0 C1.34375377 -0.00713383 2.68750415 -0.01494105 4.03125 -0.0234375 C5.29710938 -0.02085938 6.56296875 -0.01828125 7.8671875 -0.015625 C9.59751221 -0.01224121 9.59751221 -0.01224121 11.36279297 -0.00878906 C14.125 0.25 14.125 0.25 16.125 2.25 C4.905 2.58 -6.315 2.91 -17.875 3.25 C-16.50404847 14.56151093 -16.50404847 14.56151093 -9.625 21.5625 C-5.89702285 23.4772891 -3.08503688 23.84088237 1.125 23.25 C6.95321482 21.1384841 10.44989469 18.69874622 13.1875 13.0625 C14.125 11.25 14.125 11.25 16.125 10.25 C16.125 10.91 16.125 11.57 16.125 12.25 C16.785 12.58 17.445 12.91 18.125 13.25 C17.465 13.25 16.805 13.25 16.125 13.25 C15.898125 13.95125 15.67125 14.6525 15.4375 15.375 C13.21478227 20.24381027 10.21509157 24.31896876 5.125 26.25 C-0.71508239 26.89889804 -6.07789085 27.10126223 -11.4375 24.5625 C-18.14129834 18.20248619 -18.14129834 18.20248619 -18.875 13.25 C-19.49375 13.12625 -20.1125 13.0025 -20.75 12.875 C-22.875 12.25 -22.875 12.25 -24.875 10.25 C-24.5 8.125 -24.5 8.125 -23.875 6.25 C-22.885 7.24 -21.895 8.23 -20.875 9.25 C-20.545 7.27 -20.215 5.29 -19.875 3.25 C-20.865 2.92 -21.855 2.59 -22.875 2.25 C-15.28982753 -0.18188736 -7.91297493 -0.04682234 0 0 Z " fill="currentColor" transform="translate(70.875,28.75)"/>
<path d="M0 0 C3.63126046 1.65535028 5.66753651 3.76405248 7.94140625 6.99609375 C9.06088745 10.29683214 8.90874835 13.54076426 8.82421875 16.98046875 C8.81519531 17.67785156 8.80617187 18.37523438 8.796875 19.09375 C8.77341763 20.80613833 8.73754979 22.51834879 8.69921875 24.23046875 C7.70921875 24.72546875 7.70921875 24.72546875 6.69921875 25.23046875 C6.60125 24.0496875 6.50328125 22.86890625 6.40234375 21.65234375 C6.25223466 20.09496191 6.10114128 18.53767473 5.94921875 16.98046875 C5.88734375 16.20316406 5.82546875 15.42585938 5.76171875 14.625 C5.39685807 11.06760837 5.09275329 8.79161986 3.01171875 5.82421875 C0.24204751 3.91539127 -2.33531022 2.95909037 -5.55078125 1.98046875 C-6.6284375 1.6453125 -7.70609375 1.31015625 -8.81640625 0.96484375 C-9.63625 0.7225 -10.45609375 0.48015625 -11.30078125 0.23046875 C-11.30078125 1.88046875 -11.30078125 3.53046875 -11.30078125 5.23046875 C-11.96078125 5.23046875 -12.62078125 5.23046875 -13.30078125 5.23046875 C-13.23890625 4.44671875 -13.17703125 3.66296875 -13.11328125 2.85546875 C-13.17515625 1.98921875 -13.23703125 1.12296875 -13.30078125 0.23046875 C-14.29078125 -0.42953125 -15.28078125 -1.08953125 -16.30078125 -1.76953125 C-16.96078125 -0.44953125 -17.62078125 0.87046875 -18.30078125 2.23046875 C-18.96078125 1.90046875 -19.62078125 1.57046875 -20.30078125 1.23046875 C-20.96078125 2.55046875 -21.62078125 3.87046875 -22.30078125 5.23046875 C-22.96078125 5.23046875 -23.62078125 5.23046875 -24.30078125 5.23046875 C-24.36265625 5.91109375 -24.42453125 6.59171875 -24.48828125 7.29296875 C-25.5861698 11.26225812 -27.791021 14.0168643 -30.30078125 17.23046875 C-36.30078125 9.83046875 -36.30078125 9.83046875 -36.30078125 5.23046875 C-35.41326172 5.28267578 -35.41326172 5.28267578 -34.5078125 5.3359375 C-29.65334567 5.50224061 -26.15491232 5.58729259 -22.30078125 2.23046875 C-22.30078125 1.24046875 -22.30078125 0.25046875 -22.30078125 -0.76953125 C-17.04755648 -7.16476141 -6.44049953 -2.06264364 0 0 Z " fill="currentColor" transform="translate(99.30078125,59.76953125)"/>
<path d="M0 0 C0.33 0 0.66 0 1 0 C1.1953125 2.05078125 1.390625 4.1015625 1.5859375 6.15234375 C1.79089844 7.06693359 1.79089844 7.06693359 2 8 C2.66 8.33 3.32 8.66 4 9 C2.14694224 19.20271801 2.14694224 19.20271801 -1 22 C-3.6875 22.75 -3.6875 22.75 -6 23 C-6 19.7 -6 16.4 -6 13 C-14.58 13 -23.16 13 -32 13 C-32 12.67 -32 12.34 -32 12 C-23.42 11.67 -14.84 11.34 -6 11 C-18.54 11 -31.08 11 -44 11 C-43.67 10.34 -43.34 9.68 -43 9 C-34.40141808 6.89587936 -24.6919321 7.88727457 -15.875 7.9375 C-14.33073062 7.9425265 -12.78645966 7.94708736 -11.2421875 7.95117188 C-7.49475813 7.96208303 -3.74738951 7.97928386 0 8 C0 5.36 0 2.72 0 0 Z " fill="currentColor" transform="translate(91,19)"/>
<path d="M0 0 C0 8.25 0 16.5 0 25 C-2.64 25 -5.28 25 -8 25 C-9.75954931 21.48090138 -9.31190375 17.50255144 -9.375 13.625 C-9.41238281 12.76132813 -9.44976562 11.89765625 -9.48828125 11.0078125 C-9.57645018 4.65964918 -9.57645018 4.65964918 -6.7265625 1.3984375 C-4 0 -4 0 0 0 Z " fill="currentColor" transform="translate(44,63)"/>
<path d="M0 0 C6 0 6 0 7.85546875 1.4296875 C9.58060531 5.30388496 9.39525078 8.93450073 9.3125 13.125 C9.31572266 13.94871094 9.31894531 14.77242187 9.32226562 15.62109375 C9.26725072 21.73274928 9.26725072 21.73274928 7 24 C4.36 24 1.72 24 -1 24 C-0.67 16.08 -0.34 8.16 0 0 Z " fill="currentColor" transform="translate(96,64)"/>
<path d="M0 0 C0.721875 0.763125 1.44375 1.52625 2.1875 2.3125 C6.8406045 6.75879986 10.00406904 8.42053223 16.5 8.375 C17.6034375 8.38273437 18.706875 8.39046875 19.84375 8.3984375 C23.30564782 7.96141575 25.14335226 6.9393298 28 5 C30.3125 4.3125 30.3125 4.3125 32 4 C31.7215625 4.928125 31.7215625 4.928125 31.4375 5.875 C30.76313824 8.04160178 30.76313824 8.04160178 32 10 C31.34 10.226875 30.68 10.45375 30 10.6875 C27.40023094 11.82489896 25.44335928 13.03281941 23.125 14.625 C19.25480302 17.07660974 16.64029999 17.77338333 12 17 C6.31578947 13.94736842 6.31578947 13.94736842 5 10 C2.98491642 9.26676204 2.98491642 9.26676204 1 9 C1.99 9 2.98 9 4 9 C2.60804085 6.2160817 0.84424221 6.02101003 -2 5 C-1.34 3.35 -0.68 1.7 0 0 Z " fill="currentColor" transform="translate(53,46)"/>
<path d="M0 0 C0.99 0 1.98 0 3 0 C3.08142927 1.7492214 3.13938541 3.49954542 3.1875 5.25 C3.23970703 6.71179688 3.23970703 6.71179688 3.29296875 8.203125 C2.96075202 11.37468742 2.11327721 12.67040307 0 15 C0.99 15.33 1.98 15.66 3 16 C3.66 15.67 4.32 15.34 5 15 C4.67 16.32 4.34 17.64 4 19 C8.29 19 12.58 19 17 19 C17 19.33 17 19.66 17 20 C6.11 20 -4.78 20 -16 20 C-16 19.67 -16 19.34 -16 19 C-13.36 19 -10.72 19 -8 19 C-8 18.34 -8 17.68 -8 17 C-8.99 16.67 -9.98 16.34 -11 16 C-9.02 16.33 -7.04 16.66 -5 17 C-5.20625 16.2575 -5.4125 15.515 -5.625 14.75 C-6.04408751 11.67669159 -5.61949011 10.57213134 -4 8 C-4.66 8 -5.32 8 -6 8 C-5.34 6.35 -4.68 4.7 -4 3 C-3.01 3 -2.02 3 -1 3 C-0.67 2.01 -0.34 1.02 0 0 Z " fill="currentColor" transform="translate(71,4)"/>
<path d="M0 0 C1.625 1.5 1.625 1.5 3 3 C3.33 2.01 3.66 1.02 4 0 C4.99 0.33 5.98 0.66 7 1 C7.33 1.99 7.66 2.98 8 4 C7.19175781 4.65355469 6.38351563 5.30710937 5.55078125 5.98046875 C2.26704797 9.86764459 2.22708868 12.39030778 2.1875 17.3125 C2.16236328 18.05306641 2.13722656 18.79363281 2.11132812 19.55664062 C2.05281557 21.37052969 2.02345651 23.18531903 2 25 C-3.03051515 21.56195401 -5.04553053 17.45563947 -6.6484375 11.65234375 C-7.06391764 9.30448902 -7.27926497 7.36924795 -7 5 C-3.2244898 0 -3.2244898 0 0 0 Z " fill="currentColor" transform="translate(30,58)"/>
<path d="M0 0 C-0.33 1.32 -0.66 2.64 -1 4 C-1.94875 4.103125 -2.8975 4.20625 -3.875 4.3125 C-10.2279747 5.23115826 -17.18918367 6.52303369 -22 11 C-22.54913579 13.31090728 -22.54913579 13.31090728 -22.390625 15.88671875 C-22.37773438 16.82451172 -22.36484375 17.76230469 -22.3515625 18.72851562 C-22.31804688 19.70498047 -22.28453125 20.68144531 -22.25 21.6875 C-22.23195312 22.67556641 -22.21390625 23.66363281 -22.1953125 24.68164062 C-22.14815447 27.12206842 -22.08236042 29.56054769 -22 32 C-25.84828838 29.56090362 -25.84828838 29.56090362 -26.51757812 27.08642578 C-26.52208984 26.3798584 -26.52660156 25.67329102 -26.53125 24.9453125 C-26.53640625 24.16542969 -26.5415625 23.38554688 -26.546875 22.58203125 C-26.52367188 21.36580078 -26.52367188 21.36580078 -26.5 20.125 C-26.51546875 19.32191406 -26.5309375 18.51882812 -26.546875 17.69140625 C-26.5219455 13.90835482 -26.27364212 11.50908547 -24.4609375 8.13671875 C-21.25412075 5.35238738 -18.10249076 4.07049908 -14.125 2.6875 C-13.43019531 2.42388672 -12.73539063 2.16027344 -12.01953125 1.88867188 C-7.87836537 0.38740176 -4.46582848 -0.30098844 0 0 Z " fill="currentColor" transform="translate(58,56)"/>
<path d="M0 0 C5.83214661 0.49989828 8.19792732 3.88722514 11.8125 8.125 C13 11 13 11 13 22 C0.79 22 -11.42 22 -24 22 C-22 20 -22 20 -18.74365234 19.77294922 C-17.35770705 19.77326618 -15.97173699 19.78458241 -14.5859375 19.8046875 C-13.85629791 19.8075174 -13.12665833 19.81034729 -12.37490845 19.81326294 C-10.04143972 19.82446998 -7.70835297 19.8495749 -5.375 19.875 C-3.79427637 19.88502915 -2.21354673 19.89415511 -0.6328125 19.90234375 C3.24493914 19.92441095 7.12240478 19.95894385 11 20 C9.18357931 11.25065282 9.18357931 11.25065282 3.8125 4.375 C2.54017562 3.25168658 1.26886964 2.12721436 0 1 C0 0.67 0 0.34 0 0 Z " fill="currentColor" transform="translate(78,5)"/>
<path d="M0 0 C0.33 0 0.66 0 1 0 C1.38597 2.03237326 1.70680048 4.0771846 2 6.125 C2.185625 7.26195313 2.37125 8.39890625 2.5625 9.5703125 C1.94547345 13.33246047 1.61363103 13.84353864 -1.1796875 16.17773438 C-6.94965865 20.26267604 -12.85572486 19.75528895 -19.6875 19.5859375 C-20.98574707 19.57744781 -22.28399414 19.56895813 -23.62158203 19.56021118 C-27.04827089 19.53746483 -30.47339731 19.47867251 -33.8994751 19.4119873 C-37.40542471 19.35025244 -40.91163054 19.32313032 -44.41796875 19.29296875 C-51.27928164 19.22890901 -58.13956551 19.1267081 -65 19 C-65 18.67 -65 18.34 -65 18 C-64.03280281 17.99120064 -64.03280281 17.99120064 -63.04606628 17.98222351 C-56.34641816 17.91838362 -49.6472546 17.83398853 -42.94799805 17.73754883 C-40.44643535 17.70425529 -37.94479673 17.67623732 -35.44311523 17.65356445 C-31.85106998 17.6201004 -28.25972334 17.56778757 -24.66796875 17.51171875 C-22.98503975 17.50213387 -22.98503975 17.50213387 -21.26811218 17.49235535 C-19.70683342 17.46266411 -19.70683342 17.46266411 -18.11401367 17.43237305 C-16.7383448 17.41571846 -16.7383448 17.41571846 -15.33488464 17.39872742 C-12.56556588 16.92581184 -11.81177143 16.06598382 -10 14 C-7.9921875 13.7421875 -7.9921875 13.7421875 -5.875 13.875 C-4.59625 13.91625 -3.3175 13.9575 -2 14 C-0.12175109 12.12175109 -0.60897603 8.96064724 -0.4375 6.4375 C-0.31181641 4.64119141 -0.31181641 4.64119141 -0.18359375 2.80859375 C-0.12300781 1.88175781 -0.06242187 0.95492187 0 0 Z " fill="currentColor" transform="translate(105,73)"/>
<path d="M0 0 C0.70189453 0.00451172 1.40378906 0.00902344 2.12695312 0.01367188 C3.85550538 0.02543073 5.58401365 0.04336546 7.3125 0.0625 C7.3125 2.0425 7.3125 4.0225 7.3125 6.0625 C1.3725 6.0625 -4.5675 6.0625 -10.6875 6.0625 C-10.0275 5.4025 -9.3675 4.7425 -8.6875 4.0625 C-9.3475 3.0725 -10.0075 2.0825 -10.6875 1.0625 C-7.06882441 -0.1437252 -3.76243749 -0.04566918 0 0 Z " fill="currentColor" transform="translate(85.6875,81.9375)"/>
<path d="M0 0 C0 0.99 0 1.98 0 3 C-0.66 3 -1.32 3 -2 3 C-2.061875 3.680625 -2.12375 4.36125 -2.1875 5.0625 C-3.28538855 9.03178937 -5.49023975 11.78639555 -8 15 C-14 7.6 -14 7.6 -14 3 C-13.11248047 3.05220703 -13.11248047 3.05220703 -12.20703125 3.10546875 C-7.2398924 3.27563175 -4.09271311 3.16855209 0 0 Z " fill="currentColor" transform="translate(77,62)"/>
<path d="M0 0 C1.3609623 2.7219246 0.70366248 4.1831957 0.0625 7.125 C-0.13214844 8.03507812 -0.32679687 8.94515625 -0.52734375 9.8828125 C-0.68332031 10.58148438 -0.83929688 11.28015625 -1 12 C2.465 11.505 2.465 11.505 6 11 C6.99 12.485 6.99 12.485 8 14 C4.7 14.33 1.4 14.66 -2 15 C-1.01 15.66 -0.02 16.32 1 17 C1.40843923 19.71203652 1.13336867 22.2437142 1 25 C-0.32 24.01 -1.64 23.02 -3 22 C-3.66 22.33 -4.32 22.66 -5 23 C-5.33 20.36 -5.66 17.72 -6 15 C-5.34 14.67 -4.68 14.34 -4 14 C-3.64213766 11.51308326 -3.55629663 9.05202642 -3.44140625 6.54296875 C-2.93497249 3.62537251 -1.92786498 2.20547754 0 0 Z " fill="currentColor" transform="translate(50,14)"/>
<path d="M0 0 C1.6266848 0.28211877 3.25132896 0.57602375 4.875 0.875 C5.77992187 1.03742187 6.68484375 1.19984375 7.6171875 1.3671875 C10 2 10 2 12 4 C11.01 4.33 10.02 4.66 9 5 C8.67 12.26 8.34 19.52 8 27 C7.67 27 7.34 27 7 27 C7 19.41 7 11.82 7 4 C6.34 4 5.68 4 5 4 C5 8.29 5 12.58 5 17 C-0.28 17 -5.56 17 -11 17 C-11 16.67 -11 16.34 -11 16 C-6.05 16 -1.1 16 4 16 C3.66090073 9.71968549 3.66090073 9.71968549 0 5 C-0.08984375 2.41796875 -0.08984375 2.41796875 0 0 Z " fill="currentColor" transform="translate(88,60)"/>
<path d="M0 0 C1.34375377 -0.00713383 2.68750415 -0.01494105 4.03125 -0.0234375 C5.29710938 -0.02085938 6.56296875 -0.01828125 7.8671875 -0.015625 C9.59751221 -0.01224121 9.59751221 -0.01224121 11.36279297 -0.00878906 C14.125 0.25 14.125 0.25 16.125 2.25 C4.905 2.58 -6.315 2.91 -17.875 3.25 C-17.875 6.22 -17.875 9.19 -17.875 12.25 C-18.205 12.25 -18.535 12.25 -18.875 12.25 C-19.03776042 10.23177083 -19.20052083 8.21354167 -19.36328125 6.1953125 C-19.74893036 3.85480784 -19.74893036 3.85480784 -22.875 2.25 C-15.28982753 -0.18188736 -7.91297493 -0.04682234 0 0 Z " fill="currentColor" transform="translate(70.875,28.75)"/>
<path d="M0 0 C1 3 1 3 1 6 C0.34 6.226875 -0.32 6.45375 -1 6.6875 C-3.59976906 7.82489896 -5.55664072 9.03281941 -7.875 10.625 C-11.83343533 13.19120998 -14.3531771 13.48404405 -19 13 C-19 12.67 -19 12.34 -19 12 C-17.02 11.67 -15.04 11.34 -13 11 C-13 9.35 -13 7.7 -13 6 C-14.65 6 -16.3 6 -18 6 C-18 5.67 -18 5.34 -18 5 C-17.00419922 4.94392578 -17.00419922 4.94392578 -15.98828125 4.88671875 C-10.86611377 4.50536029 -7.25896646 4.09743015 -3 1 C-2.01 0.67 -1.02 0.34 0 0 Z " fill="currentColor" transform="translate(84,50)"/>
<path d="M0 0 C0.33 0 0.66 0 1 0 C1.01417969 0.94101563 1.02835938 1.88203125 1.04296875 2.8515625 C1.01646387 10.63967266 1.01646387 10.63967266 4 17.5625 C7.20569568 20.16712774 10.41831078 22.08856496 14.109375 23.921875 C16 25 16 25 17 27 C9.69314768 25.44535057 3.43882549 22.47912932 -0.94140625 16.23046875 C-2.47384666 13.517587 -3.9036301 10.91729729 -5 8 C-4.67 7.34 -4.34 6.68 -4 6 C-3.01 7.65 -2.02 9.3 -1 11 C-0.67 7.37 -0.34 3.74 0 0 Z " fill="currentColor" transform="translate(30,69)"/>
<path d="M0 0 C0.33 0 0.66 0 1 0 C1.12375 0.804375 1.2475 1.60875 1.375 2.4375 C1.58125 3.283125 1.7875 4.12875 2 5 C2.66 5.33 3.32 5.66 4 6 C0.37042577 14.04342833 -4.4189233 19.81576246 -12.8046875 23.09765625 C-15.19241428 23.82479684 -17.56260646 24.46570705 -20 25 C-20 23.35 -20 21.7 -20 20 C-19.35933594 19.98582031 -18.71867187 19.97164062 -18.05859375 19.95703125 C-11.45482626 19.59288908 -7.9898902 18.36615393 -3 14 C-0.81005752 10.71508627 -0.64722661 9.16904361 -0.375 5.3125 C-0.30023438 4.31863281 -0.22546875 3.32476562 -0.1484375 2.30078125 C-0.09945312 1.54152344 -0.05046875 0.78226562 0 0 Z " fill="currentColor" transform="translate(109,72)"/>
<path d="M0 0 C1.32 1.32 2.64 2.64 4 4 C3.01 4.495 3.01 4.495 2 5 C2.66 5.66 3.32 6.32 4 7 C3.67 7.33 3.34 7.66 3 8 C8.61 8 14.22 8 20 8 C20 8.66 20 9.32 20 10 C12.08 10 4.16 10 -4 10 C-4 7.36 -4 4.72 -4 2 C-2.68 2.33 -1.36 2.66 0 3 C0 2.01 0 1.02 0 0 Z " fill="currentColor" transform="translate(74,79)"/>
<path d="M0 0 C0 5.61 0 11.22 0 17 C-4.55430712 13.58426966 -4.55430712 13.58426966 -6.3125 10 C-6.65925781 9.319375 -7.00601562 8.63875 -7.36328125 7.9375 C-8 6 -8 6 -7 3 C-1.66666667 0 -1.66666667 0 0 0 Z " fill="currentColor" transform="translate(32,66)"/>
<path d="M0 0 C0.33 0.99 0.66 1.98 1 3 C2.423125 2.690625 2.423125 2.690625 3.875 2.375 C4.90625 2.25125 5.9375 2.1275 7 2 C7.66 2.66 8.32 3.32 9 4 C11.91188245 4.37268887 11.91188245 4.37268887 15.3203125 4.4140625 C16.57714844 4.45273437 17.83398438 4.49140625 19.12890625 4.53125 C20.44761719 4.5621875 21.76632813 4.593125 23.125 4.625 C24.46486918 4.66318029 25.80471383 4.70223206 27.14453125 4.7421875 C30.42954619 4.8367203 33.71455138 4.92227156 37 5 C37 5.33 37 5.66 37 6 C24.79 6.33 12.58 6.66 0 7 C0 4.69 0 2.38 0 0 Z " fill="currentColor" transform="translate(49,19)"/>
<path d="M0 0 C3.63 0.66 7.26 1.32 11 2 C11.33 3.65 11.66 5.3 12 7 C11 8 11 8 7.9375 8.0625 C6.968125 8.041875 5.99875 8.02125 5 8 C5.33 7.34 5.66 6.68 6 6 C3.69 5.01 1.38 4.02 -1 3 C-0.67 2.01 -0.34 1.02 0 0 Z M6 3 C6.66 3.66 7.32 4.32 8 5 C8 4.34 8 3.68 8 3 C7.34 3 6.68 3 6 3 Z " fill="currentColor" transform="translate(60,54)"/>
<path d="M0 0 C4.8628852 0.41681873 6.86486307 2.36984145 10 6 C12.4790937 9.50492557 13 10.58618039 13 15 C12.01 15 11.02 15 10 15 C9.649375 13.989375 9.29875 12.97875 8.9375 11.9375 C7.23835918 7.8876061 4.61811007 5.33059439 1.42578125 2.3828125 C0.95527344 1.92648438 0.48476562 1.47015625 0 1 C0 0.67 0 0.34 0 0 Z " fill="currentColor" transform="translate(78,5)"/>
<path d="M0 0 C0.33 0.66 0.66 1.32 1 2 C6.28 2 11.56 2 17 2 C17 2.99 17 3.98 17 5 C11.39 5 5.78 5 0 5 C0 3.35 0 1.7 0 0 Z " fill="currentColor" transform="translate(76,77)"/>
<path d="M0 0 C0.33 0.66 0.66 1.32 1 2 C2.98 2 4.96 2 7 2 C6.01 3.485 6.01 3.485 5 5 C4.01 5 3.02 5 2 5 C1.7525 5.969375 1.505 6.93875 1.25 7.9375 C0 11 0 11 -2 11.9375 C-4 12 -4 12 -6 11 C-4.54955729 6.89041233 -2.48889248 3.56741255 0 0 Z " fill="currentColor" transform="translate(76,70)"/>
<path d="M0 0 C3.46995401 1.15665134 3.88556665 2.18075554 6 5 C6.99 5.33 7.98 5.66 9 6 C9.33 7.98 9.66 9.96 10 12 C8.68 11.67 7.36 11.34 6 11 C5.67 9.68 5.34 8.36 5 7 C3.35 7.33 1.7 7.66 0 8 C-1.09658936 4.71023192 -0.79953138 3.28696233 0 0 Z " fill="currentColor" transform="translate(43,36)"/>
<path d="M0 0 C0.66 0.33 1.32 0.66 2 1 C1.979375 1.94875 1.95875 2.8975 1.9375 3.875 C1.77448174 6.90666283 1.77448174 6.90666283 3 9 C2.34 9 1.68 9 1 9 C0.731875 9.61875 0.46375 10.2375 0.1875 10.875 C-1 13 -1 13 -4 15 C-5.32 14.34 -6.64 13.68 -8 13 C-7.34 12.67 -6.68 12.34 -6 12 C-5.09656316 10.11736119 -5.09656316 10.11736119 -4.375 7.9375 C-4.11460938 7.20402344 -3.85421875 6.47054688 -3.5859375 5.71484375 C-3.39257812 5.14894531 -3.19921875 4.58304688 -3 4 C-2.67 4 -2.34 4 -2 4 C-2 5.65 -2 7.3 -2 9 C-1.34 9 -0.68 9 0 9 C0 6.03 0 3.06 0 0 Z " fill="currentColor" transform="translate(77,6)"/>
<path d="M0 0 C3.46941546 0.45822468 6.67395049 0.89131683 10 2 C9.67 2.99 9.34 3.98 9 5 C8.34 5 7.68 5 7 5 C6.67 5.66 6.34 6.32 6 7 C4.35 6.67 2.7 6.34 1 6 C0.67 4.02 0.34 2.04 0 0 Z " fill="currentColor" transform="translate(63,65)"/>
<path d="M0 0 C3.97109827 3.97109827 3.97109827 3.97109827 4.09765625 8.4765625 C4.09100795 9.85940867 4.07908295 11.24223728 4.0625 12.625 C4.05798828 13.33140625 4.05347656 14.0378125 4.04882812 14.765625 C4.03703875 16.51045275 4.01910324 18.255237 4 20 C3.34 20.33 2.68 20.66 2 21 C1.34 14.07 0.68 7.14 0 0 Z " fill="currentColor" transform="translate(104,64)"/>
<path d="M0 0 C0.33 0 0.66 0 1 0 C1.02578125 0.62648438 1.0515625 1.25296875 1.078125 1.8984375 C1.13484375 2.71570313 1.1915625 3.53296875 1.25 4.375 C1.29640625 5.18710938 1.3428125 5.99921875 1.390625 6.8359375 C1.7922092 9.18838927 1.7922092 9.18838927 4.046875 10.2890625 C4.69140625 10.52367188 5.3359375 10.75828125 6 11 C5 13 5 13 3 16 C3.66 16.33 4.32 16.66 5 17 C3.02 17 1.04 17 -1 17 C-0.67 11.39 -0.34 5.78 0 0 Z " fill="currentColor" transform="translate(96,71)"/>
<path d="M0 0 C2.31 0 4.62 0 7 0 C7 2.97 7 5.94 7 9 C5.68 8.01 4.36 7.02 3 6 C2.01 6.495 2.01 6.495 1 7 C0.67 4.69 0.34 2.38 0 0 Z " fill="currentColor" transform="translate(44,30)"/>
<path d="M0 0 C-0.55989303 3.99012371 -1.75669768 6.5255052 -4.0625 9.8125 C-4.88427734 10.99779297 -4.88427734 10.99779297 -5.72265625 12.20703125 C-6.35494141 13.09455078 -6.35494141 13.09455078 -7 14 C-7.99 13.34 -8.98 12.68 -10 12 C-9.525625 11.4225 -9.05125 10.845 -8.5625 10.25 C-6.9029364 8.16574383 -6.9029364 8.16574383 -6.5625 6 C-5.65436523 2.77107636 -3.49104955 0 0 0 Z " fill="currentColor" transform="translate(81,61)"/>
<path d="M0 0 C1.32 0.66 2.64 1.32 4 2 C3.67 3.65 3.34 5.3 3 7 C3.66 7.33 4.32 7.66 5 8 C1.55692321 9.14769226 -1.40094235 9 -5 9 C-3.35 6.03 -1.7 3.06 0 0 Z " fill="currentColor" transform="translate(83,58)"/>
<path d="M0 0 C0.99 0 1.98 0 3 0 C2.5359375 0.928125 2.5359375 0.928125 2.0625 1.875 C0.5960722 6.18802294 0.33380974 10.4759996 0 15 C-0.99 15 -1.98 15 -3 15 C-3.33 11.7 -3.66 8.4 -4 5 C-3.34 5 -2.68 5 -2 5 C-1.34 3.35 -0.68 1.7 0 0 Z " fill="currentColor" transform="translate(70,74)"/>
<path d="M0 0 C2.64 0 5.28 0 8 0 C8 0.99 8 1.98 8 3 C8.99 3.33 9.98 3.66 11 4 C9.36587557 5.70840281 8.13093906 6.93453047 6 8 C3.6670134 8.04022391 1.33293334 8.04320247 -1 8 C-1 7.67 -1 7.34 -1 7 C0.98 6.67 2.96 6.34 5 6 C5 4.35 5 2.7 5 1 C3.35 1 1.7 1 0 1 C0 0.67 0 0.34 0 0 Z " fill="currentColor" transform="translate(66,55)"/>
<path d="M0 0 C0.52078125 0.24621094 1.0415625 0.49242188 1.578125 0.74609375 C-0.16739564 1.89873928 -1.91847696 3.04296702 -3.671875 4.18359375 C-4.64640625 4.82167969 -5.6209375 5.45976563 -6.625 6.1171875 C-9.0155496 7.50944893 -10.70136036 8.41505768 -13.421875 8.74609375 C-14.081875 8.41609375 -14.741875 8.08609375 -15.421875 7.74609375 C-13.34750042 6.37616719 -11.26426038 5.02549829 -9.171875 3.68359375 C-8.58535156 3.29365234 -7.99882813 2.90371094 -7.39453125 2.50195312 C-2.96392641 -0.31073422 -2.96392641 -0.31073422 0 0 Z " fill="currentColor" transform="translate(63.421875,0.25390625)"/>
<path d="M0 0 C0 0.66 0 1.32 0 2 C-4.1205746 3.99785435 -7.45194365 4.17835515 -12 4 C-12.33 3.34 -12.66 2.68 -13 2 C-8.25 0 -8.25 0 -6 0 C-3 -1 -3 -1 0 0 Z " fill="currentColor" transform="translate(77,49)"/>
<path d="M0 0 C0 0.99 0 1.98 0 3 C-0.66 3 -1.32 3 -2 3 C-2.33 3.99 -2.66 4.98 -3 6 C-3.66 6 -4.32 6 -5 6 C-5.33 5.34 -5.66 4.68 -6 4 C-6.99 4 -7.98 4 -9 4 C-9.33 3.01 -9.66 2.02 -10 1 C-6.78548731 -0.60725635 -3.56387464 -0.05748185 0 0 Z " fill="currentColor" transform="translate(73,0)"/>
<path d="M0 0 C1.32 0.33 2.64 0.66 4 1 C3.01 1.495 3.01 1.495 2 2 C1.17195931 4.48412207 1 6.35220307 1 9 C-1.5 11.6875 -1.5 11.6875 -4 14 C-4.66 13.67 -5.32 13.34 -6 13 C-5.566875 12.525625 -5.13375 12.05125 -4.6875 11.5625 C-2.31953016 7.96669395 -1.23528236 4.10008613 0 0 Z " fill="currentColor" transform="translate(95,28)"/>
<path d="M0 0 C0.33 0 0.66 0 1 0 C1.12375 0.804375 1.2475 1.60875 1.375 2.4375 C1.684375 3.7059375 1.684375 3.7059375 2 5 C2.66 5.33 3.32 5.66 4 6 C3.26160754 7.44349674 2.50873357 8.87959051 1.75 10.3125 C1.33234375 11.11300781 0.9146875 11.91351563 0.484375 12.73828125 C-1.08656783 15.13190204 -2.6267037 16.43301591 -5 18 C-3.79618552 15.50638429 -2.54571278 13.31856917 -1 11 C-0.54227937 8.26127045 -0.54227937 8.26127045 -0.375 5.3125 C-0.30023438 4.31863281 -0.22546875 3.32476562 -0.1484375 2.30078125 C-0.09945312 1.54152344 -0.05046875 0.78226562 0 0 Z " fill="currentColor" transform="translate(109,72)"/>
<path d="M0 0 C2.875 1.5625 2.875 1.5625 5 3 C4.01 4.485 4.01 4.485 3 6 C-1 4 -5 2 -9 0 C-5.4208653 -1.1930449 -3.64388859 -0.87453326 0 0 Z " fill="currentColor" transform="translate(100,60)"/>
<path d="M0 0 C-0.66 0.66 -1.32 1.32 -2 2 C-2.99 1.67 -3.98 1.34 -5 1 C-5.33 1.66 -5.66 2.32 -6 3 C-8.0625 3.625 -8.0625 3.625 -10 4 C-10 4.66 -10 5.32 -10 6 C-10.99 6 -11.98 6 -13 6 C-13 5.01 -13 4.02 -13 3 C-13.66 2.67 -14.32 2.34 -15 2 C-13.44240657 1.46467177 -11.87861955 0.94734622 -10.3125 0.4375 C-9.44238281 0.14746094 -8.57226562 -0.14257812 -7.67578125 -0.44140625 C-4.75368926 -1.05141961 -2.85599447 -0.77703633 0 0 Z " fill="currentColor" transform="translate(57,60)"/>
<path d="M0 0 C0.33 0 0.66 0 1 0 C1 2.64 1 5.28 1 8 C0.01 8.33 -0.98 8.66 -2 9 C-2.33 9.99 -2.66 10.98 -3 12 C-3.99 11.34 -4.98 10.68 -6 10 C-5.67 8.68 -5.34 7.36 -5 6 C-4.34 6 -3.68 6 -3 6 C-2.67 5.34 -2.34 4.68 -2 4 C-1.34 4.33 -0.68 4.66 0 5 C0 3.35 0 1.7 0 0 Z " fill="currentColor" transform="translate(46,20)"/>
<path d="M0 0 C0 4.29 0 8.58 0 13 C-0.66 13 -1.32 13 -2 13 C-2 9.7 -2 6.4 -2 3 C-2.66 3 -3.32 3 -4 3 C-4 2.34 -4 1.68 -4 1 C-2 0 -2 0 0 0 Z " fill="currentColor" transform="translate(64,2)"/>
<path d="M0 0 C5.85272256 0.45020943 10.08220119 3.03839227 15 6 C15 6.33 15 6.66 15 7 C10.78474059 7.35127162 9.22298718 6.63698951 6 4 C4.01549844 2.96958573 2.01800895 1.96314063 0 1 C0 0.67 0 0.34 0 0 Z " fill="currentColor" transform="translate(73,0)"/>
<path d="M0 0 C-1.32 0.33 -2.64 0.66 -4 1 C-4.33 2.65 -4.66 4.3 -5 6 C-5.99 5.67 -6.98 5.34 -8 5 C-8.33 5.66 -8.66 6.32 -9 7 C-9.33 5.68 -9.66 4.36 -10 3 C-6.68152292 -0.06320961 -4.44849969 -0.3033068 0 0 Z " fill="currentColor" transform="translate(87,56)"/>
<path d="M0 0 C0.99 0.33 1.98 0.66 3 1 C4.1875 4.5625 4.1875 4.5625 5 8 C4.01 8 3.02 8 2 8 C0.25 5.6875 0.25 5.6875 -1 3 C-0.67 2.01 -0.34 1.02 0 0 Z " fill="currentColor" transform="translate(55,40)"/>
<path d="M0 0 C4.31392226 0.4793247 6.16569547 1.7457985 9 5 C8.67 5.66 8.34 6.32 8 7 C4.46399535 5.08864614 2.21027154 3.37357234 0 0 Z " fill="currentColor" transform="translate(78,5)"/>
<path d="M0 0 C0.99 0.33 1.98 0.66 3 1 C3 1.66 3 2.32 3 3 C3.66 3.33 4.32 3.66 5 4 C3.02 5.32 1.04 6.64 -1 8 C-1.04241723 5.66705225 -1.04092937 3.33297433 -1 1 C-0.67 0.67 -0.34 0.34 0 0 Z " fill="currentColor" transform="translate(65,3)"/>
<path d="M0 0 C0.33 0 0.66 0 1 0 C1 2.64 1 5.28 1 8 C-0.65 7.67 -2.3 7.34 -4 7 C-4.33 5.35 -4.66 3.7 -5 2 C-3.68 2.99 -2.36 3.98 -1 5 C-0.67 3.35 -0.34 1.7 0 0 Z " fill="currentColor" transform="translate(51,33)"/>
<path d="M0 0 C0.33 0 0.66 0 1 0 C1.19491452 1.45736087 1.38069358 2.91594593 1.5625 4.375 C1.66691406 5.18710937 1.77132812 5.99921875 1.87890625 6.8359375 C2 9 2 9 1 11 C-1.31 11 -3.62 11 -6 11 C-6 10.01 -6 9.02 -6 8 C-4.02 8 -2.04 8 0 8 C0 5.36 0 2.72 0 0 Z " fill="currentColor" transform="translate(91,19)"/>
<path d="M0 0 C0.33 0 0.66 0 1 0 C1 2.97 1 5.94 1 9 C1.99 9.33 2.98 9.66 4 10 C1.04335481 11.4783226 -1.74229737 11.06032783 -5 11 C-4.34 10.34 -3.68 9.68 -3 9 C-2.01 9 -1.02 9 0 9 C0 6.03 0 3.06 0 0 Z " fill="currentColor" transform="translate(68,80)"/>
<path d="M0 0 C0.33 0.66 0.66 1.32 1 2 C1.66 2.33 2.32 2.66 3 3 C2.34 3 1.68 3 1 3 C0.71125 3.78375 0.4225 4.5675 0.125 5.375 C-1 8 -1 8 -3 10 C-2.88637738 8.5199159 -2.75877092 7.04089926 -2.625 5.5625 C-2.55539063 4.73878906 -2.48578125 3.91507813 -2.4140625 3.06640625 C-2.27742188 2.38449219 -2.14078125 1.70257813 -2 1 C-1.34 0.67 -0.68 0.34 0 0 Z " fill="currentColor" transform="translate(86,39)"/>
<path d="M0 0 C1.32 0 2.64 0 4 0 C3.67 1.98 3.34 3.96 3 6 C2.01 6.33 1.02 6.66 0 7 C0 4.69 0 2.38 0 0 Z " fill="currentColor" transform="translate(87,32)"/>
<path d="M0 0 C0.33 0.99 0.66 1.98 1 3 C1.66 3 2.32 3 3 3 C2.67 3.99 2.34 4.98 2 6 C1.01 6.33 0.02 6.66 -1 7 C-1.66 6.67 -2.32 6.34 -3 6 C-1.125 1.125 -1.125 1.125 0 0 Z " fill="currentColor" transform="translate(73,75)"/>
<path d="M0 0 C0.66 0.66 1.32 1.32 2 2 C1.67028521 5.29714793 1.3773161 6.6226839 -1 9 C-1.99 9 -2.98 9 -4 9 C-4 8.34 -4 7.68 -4 7 C-3.34 6.67 -2.68 6.34 -2 6 C-1.27306096 4.02111039 -0.60183749 2.02045442 0 0 Z " fill="currentColor" transform="translate(91,32)"/>
<path d="M0 0 C3 1 3 1 4 3 C0.04 4.98 0.04 4.98 -4 7 C-2.92598892 4.08482708 -2.22189824 2.22189824 0 0 Z " fill="currentColor" transform="translate(54,11)"/>
<path d="M0 0 C0.598125 0.309375 1.19625 0.61875 1.8125 0.9375 C4.08956772 2.10209704 4.08956772 2.10209704 7 3 C7 3.99 7 4.98 7 6 C4.0625 5.25 4.0625 5.25 1 4 C0.125 1.875 0.125 1.875 0 0 Z " fill="currentColor" transform="translate(58,49)"/>
<path d="M0 0 C1.98 0.495 1.98 0.495 4 1 C4.33 4.63 4.66 8.26 5 12 C4.34 12 3.68 12 3 12 C2.67 9.03 2.34 6.06 2 3 C1.01 3.495 1.01 3.495 0 4 C-0.33 3.01 -0.66 2.02 -1 1 C-0.67 0.67 -0.34 0.34 0 0 Z " fill="currentColor" transform="translate(58,4)"/>
<path d="M0 0 C0 0.99 0 1.98 0 3 C-0.66 3 -1.32 3 -2 3 C-2 4.32 -2 5.64 -2 7 C-4.475 6.01 -4.475 6.01 -7 5 C-2.25 1.125 -2.25 1.125 0 0 Z " fill="currentColor" transform="translate(77,62)"/>
<path d="M0 0 C0.66 0 1.32 0 2 0 C1.67 0.66 1.34 1.32 1 2 C0.67 1.34 0.34 0.68 0 0 Z M-6 1 C-3.69 1.33 -1.38 1.66 1 2 C0.01 3.485 0.01 3.485 -1 5 C-3.475 4.01 -3.475 4.01 -6 3 C-6 2.34 -6 1.68 -6 1 Z " fill="currentColor" transform="translate(66,57)"/>
<path d="M0 0 C6.4 0.49230769 6.4 0.49230769 9.4375 3.0625 C10.2109375 4.0215625 10.2109375 4.0215625 11 5 C6.69159287 3.92289822 3.36423277 2.96052484 0 0 Z " fill="currentColor" transform="translate(36,91)"/>
<path d="M0 0 C0.66 0 1.32 0 2 0 C1.64950425 3.24208567 1.43778819 4.61527704 -1.0625 6.8125 C-1.701875 7.204375 -2.34125 7.59625 -3 8 C-2.67 6.35 -2.34 4.7 -2 3 C-1.34 3 -0.68 3 0 3 C0 2.01 0 1.02 0 0 Z " fill="currentColor" transform="translate(82,41)"/>
<path d="M0 0 C3.875 1.75 3.875 1.75 5 4 C3.68 3.67 2.36 3.34 1 3 C1 3.66 1 4.32 1 5 C1.99 5.33 2.98 5.66 4 6 C2.68 6.33 1.36 6.66 0 7 C0 4.69 0 2.38 0 0 Z " fill="currentColor" transform="translate(78,7)"/>
<path d="M0 0 C0.66 0 1.32 0 2 0 C1.67 1.65 1.34 3.3 1 5 C-0.32 5.33 -1.64 5.66 -3 6 C-2 4 -1 2 0 0 Z " fill="currentColor" transform="translate(79,61)"/>
<path d="M0 0 C-1.8125 1.5625 -1.8125 1.5625 -4 3 C-4.99 2.67 -5.98 2.34 -7 2 C-7.33 1.34 -7.66 0.68 -8 0 C-4.71023192 -1.09658936 -3.28696233 -0.79953138 0 0 Z " fill="currentColor" transform="translate(80,52)"/>
</svg>

