<svg width="57" height="57" viewBox="0 0 57 57" fill="none" xmlns="http://www.w3.org/2000/svg">
<mask id="mask0_426_197" style="mask-type:luminance" maskUnits="userSpaceOnUse" x="0" y="0" width="57" height="57">
<path d="M57 0H0V57H57V0Z" fill="white"/>
</mask>
<g mask="url(#mask0_426_197)">
<path d="M21.3609 36.4756H46.3472C46.8095 36.4756 47.1839 36.101 47.1839 35.6389V16.0069C47.1839 15.7502 47.066 15.5076 46.8642 15.3491L34.371 5.53304C34.0675 5.29465 33.6407 5.29465 33.3372 5.53304L20.844 15.3491C20.6422 15.5077 20.5245 15.7502 20.5245 16.0069V35.6389C20.5245 36.101 20.8989 36.4756 21.3609 36.4756ZM30.2289 34.8024V22.1976H37.4795V34.8024H30.2289ZM22.1976 16.4136L33.8541 7.25486L45.5108 16.4136V34.8024H39.1526V21.3611C39.1526 20.8991 38.7782 20.5245 38.3159 20.5245H29.3922C28.9302 20.5245 28.5558 20.8991 28.5558 21.3611V34.8024H22.1976V16.4136Z" fill="currentColor"/>
<path d="M51.7013 34.8022C51.2393 34.8022 50.8648 35.1768 50.8648 35.6389C50.8648 36.1009 51.2393 36.4755 51.7013 36.4755H55.2708C55.733 36.4755 56.1074 36.1009 56.1074 35.6389C56.1074 35.1768 55.733 34.8022 55.2708 34.8022H54.3228V7.02737H55.2708C55.733 7.02737 56.1074 6.65281 56.1074 6.19079C56.1074 5.72877 55.733 5.35419 55.2708 5.35419H51.7013C51.2393 5.35419 50.8648 5.72877 50.8648 6.19079C50.8648 6.65281 51.2393 7.02737 51.7013 7.02737H52.6495V34.8022H51.7013Z" fill="currentColor"/>
<path d="M56.1633 42.8337H46.3474C45.8852 42.8337 45.5108 43.2083 45.5108 43.6702C45.5108 44.1322 45.8852 44.5068 46.3474 44.5068H55.3269V55.3269H50.7535V52.5939C50.7535 52.1318 50.3789 51.7574 49.9169 51.7574C49.4546 51.7574 49.0802 52.1318 49.0802 52.5939V55.3269H43.6144V51.7015C43.6144 51.2396 43.24 50.865 42.778 50.865C42.3157 50.865 41.9413 51.2396 41.9413 51.7015V55.3269H36.4755V52.5939C36.4755 52.1318 36.1011 51.7574 35.6389 51.7574C35.1768 51.7574 34.8024 52.1318 34.8024 52.5939V55.3269H29.3367V51.7015C29.3367 51.2396 28.9621 50.865 28.5 50.865C28.0379 50.865 27.6633 51.2396 27.6633 51.7015V55.3269H22.1976V52.5939C22.1976 52.1318 21.8232 51.7574 21.3611 51.7574C20.8989 51.7574 20.5245 52.1318 20.5245 52.5939V55.3269H15.0587V51.7015C15.0587 51.2396 14.6843 50.865 14.2221 50.865C13.76 50.865 13.3855 51.2396 13.3855 51.7015V55.3269H7.91976V52.5939C7.91976 52.1318 7.5453 51.7574 7.08318 51.7574C6.62103 51.7574 6.24658 52.1318 6.24658 52.5939V55.3269H1.67319V50.7507C1.69171 50.7519 1.71011 50.7535 1.72896 50.7535H4.40606C4.86821 50.7535 5.24266 50.3789 5.24266 49.9169C5.24266 49.4548 4.86821 49.0802 4.40606 49.0802H1.72896C1.71011 49.0802 1.69171 49.0818 1.67319 49.0831V43.6118C1.69171 43.6128 1.71011 43.6144 1.72896 43.6144H6.19081C6.65293 43.6144 7.02741 43.2398 7.02741 42.778C7.02741 42.3159 6.65293 41.9413 6.19081 41.9413H1.72896C1.71011 41.9413 1.69171 41.9429 1.67319 41.9442V36.4727C1.69171 36.4739 1.71011 36.4755 1.72896 36.4755H4.40606C4.86821 36.4755 5.24266 36.1009 5.24266 35.6389C5.24266 35.1768 4.86821 34.8024 4.40606 34.8024H1.72896C1.71011 34.8024 1.69171 34.8038 1.67319 34.8051V29.3338C1.69171 29.335 1.71011 29.3367 1.72896 29.3367H6.19081C6.65293 29.3367 7.02741 28.9621 7.02741 28.5C7.02741 28.0379 6.65293 27.6633 6.19081 27.6633H1.72896C1.71011 27.6633 1.69171 27.665 1.67319 27.6662V22.1949C1.69171 22.1962 1.71011 22.1976 1.72896 22.1976H4.40606C4.86821 22.1976 5.24266 21.8232 5.24266 21.3611C5.24266 20.899 4.86821 20.5245 4.40606 20.5245H1.72896C1.71011 20.5245 1.69171 20.5261 1.67319 20.5273V15.0559C1.69171 15.0572 1.71011 15.0587 1.72896 15.0587H6.19081C6.65293 15.0587 7.02741 14.6841 7.02741 14.2221C7.02741 13.7601 6.65293 13.3855 6.19081 13.3855H1.72896C1.71011 13.3855 1.69171 13.3871 1.67319 13.3883V7.91698C1.69171 7.91821 1.71011 7.91976 1.72896 7.91976H4.40606C4.86821 7.91976 5.24266 7.5452 5.24266 7.08318C5.24266 6.62114 4.86821 6.24658 4.40606 6.24658H1.72896C1.71011 6.24658 1.69171 6.24814 1.67319 6.24936V1.67319H12.4932V43.6702C12.4932 44.1322 12.8676 44.5068 13.3298 44.5068H42.2687C42.7308 44.5068 43.1054 44.1322 43.1054 43.6702C43.1054 43.2083 42.7308 42.8337 42.2687 42.8337H14.1663V0.836594C14.1663 0.374572 13.7919 0 13.3298 0H0.836594C0.37446 0 0 0.374572 0 0.836594V56.1633C0 56.6254 0.37446 57 0.836594 57H56.1633C56.6256 57 57 56.6254 57 56.1633V43.6702C57 43.2083 56.6256 42.8337 56.1633 42.8337Z" fill="currentColor"/>
</g>
</svg>
