<svg width="32" height="32" viewBox="0 0 32 32" fill="none" xmlns="http://www.w3.org/2000/svg">
<g clip-path="url(#clip0_136_4375)">
<path d="M31.4667 30.9333H29.3004C29.3231 30.7581 29.3334 30.5791 29.3334 30.4C29.3334 28.8946 28.4671 27.6132 27.2001 27.0199V9.06669C27.2001 8.74669 26.9867 8.53337 26.6667 8.53337H18.6667V0.533374C18.6667 0.213374 18.4534 6.10489e-05 18.1334 6.10489e-05H3.73344C3.41331 -1.45112e-06 3.2 0.213311 3.2 0.533311V30.9333H0.533312C0.213313 30.9333 0 31.1466 0 31.4666C0 31.7866 0.213313 32 0.533312 32H3.73331H5.33331H18.1333H28.64H31.4667C31.7867 32 32 31.7867 32 31.4667C32 31.1467 31.7867 30.9333 31.4667 30.9333ZM26.1333 26.7043C25.9592 26.68 25.7814 26.6666 25.6 26.6666C25.1974 26.6666 24.8024 26.7352 24.4293 26.8634C24.3364 26.7395 24.1866 26.6666 24 26.6666C23.68 26.6666 23.4667 26.8799 23.4667 27.1999V27.3634C23.2646 27.509 23.0766 27.6751 22.9061 27.8598C22.8791 27.8883 22.8526 27.9172 22.8267 27.9466C22.3847 27.3941 21.8155 26.9945 21.1719 26.7999C21.0794 26.7151 20.952 26.6666 20.8 26.6666C20.7406 26.6666 20.6848 26.674 20.6334 26.6881C20.5129 26.674 20.3906 26.6666 20.2667 26.6666C19.9324 26.6666 19.5561 26.7099 19.2511 26.8337C19.2134 26.8465 19.1759 26.8596 19.1388 26.8737C18.7702 26.5741 18.3391 26.3584 17.8849 26.2397C17.8801 26.2384 17.8751 26.2374 17.8704 26.2361C17.8307 26.2259 17.791 26.2162 17.7511 26.2076C17.7187 26.2004 17.6859 26.1942 17.6532 26.1881C17.6391 26.1855 17.6249 26.1827 17.6106 26.1802C17.5763 26.1743 17.5419 26.1691 17.5072 26.1642C17.4917 26.1621 17.4762 26.1601 17.4606 26.1582C17.4288 26.1542 17.3969 26.1506 17.3647 26.1476C17.3413 26.1454 17.3178 26.1438 17.2943 26.1421C17.2692 26.1404 17.2441 26.1383 17.2188 26.1371C17.1681 26.1347 17.1174 26.1332 17.0667 26.1332C17.0274 26.1332 16.9885 26.134 16.9498 26.1354C16.9244 26.1363 16.8991 26.1379 16.8738 26.1393C16.8636 26.1399 16.8534 26.1404 16.8433 26.1411C16.3574 26.1733 15.88 26.3104 15.4666 26.5533V9.6H18.1333H26.1333V26.7043ZM4.26669 1.06669H17.6V8.53337H14.9333C14.6133 8.53337 14.4 8.74669 14.4 9.06669V25.6534C14.1274 25.3808 13.8133 25.1502 13.4712 24.9698C13.441 24.9537 13.4105 24.9381 13.3799 24.9228C13.3678 24.9169 13.3559 24.9107 13.3438 24.9049C12.9631 24.7202 12.5489 24.5991 12.1161 24.5538C12.1101 24.5532 12.1039 24.5527 12.0978 24.5521C12.0476 24.5471 11.9971 24.5431 11.9463 24.5402C11.9329 24.5394 11.9194 24.5386 11.9059 24.5379C11.8486 24.5352 11.7911 24.5334 11.7333 24.5334C10.9396 24.5334 10.2042 24.7944 9.6 25.2332V25.0667C9.6 24.7467 9.38669 24.5334 9.06669 24.5334C8.74669 24.5334 8.53337 24.7467 8.53337 25.0667V26.1334C8.53337 26.2134 8.54669 26.2867 8.57169 26.3517C8.30981 26.7833 8.12938 27.2698 8.05338 27.7868C7.43938 27.857 6.87794 28.0779 6.40006 28.4082V28.2668C6.40006 27.9468 6.18675 27.7335 5.86675 27.7335C5.54675 27.7335 5.33344 27.9468 5.33344 28.2668V29.3335C5.33344 29.3957 5.34175 29.4538 5.35712 29.5072C5.09269 29.9349 4.91275 30.4188 4.83862 30.9334H4.26681V1.06669H4.26669ZM8.29062 28.8111C8.30119 28.8101 8.31188 28.8095 8.3225 28.8087C8.35063 28.8065 8.37875 28.8044 8.40713 28.8031C8.44894 28.8012 8.491 28.7999 8.53337 28.7999C8.85337 28.7999 9.06669 28.5866 9.06669 28.2666C9.06669 26.7733 10.24 25.5999 11.7334 25.5999C13.0667 25.5999 14.1867 26.5599 14.3467 27.8932C14.3827 28.0375 14.4684 28.1564 14.5855 28.2354C14.5929 28.2406 14.6004 28.2454 14.6081 28.2502C14.6164 28.2553 14.6246 28.2604 14.6331 28.2651C14.6528 28.2759 14.6733 28.2859 14.6947 28.2944C14.6955 28.2947 14.6962 28.2951 14.6971 28.2954C14.7215 28.3052 14.747 28.3134 14.7733 28.3199C14.7734 28.3199 14.7734 28.3199 14.7734 28.32C14.8052 28.3306 14.8413 28.3346 14.8794 28.3334C15.0547 28.336 15.2177 28.2401 15.3067 28.1068C15.3067 28.1067 15.3067 28.1067 15.3068 28.1067L15.3601 28.0534C15.7868 27.5201 16.3734 27.2001 17.0668 27.2001C17.4269 27.2001 17.7869 27.3009 18.1099 27.4896C17.4738 28.0877 17.113 28.8676 17.0711 29.7019C17.0682 29.7565 17.0668 29.8115 17.0668 29.8667C17.0668 30.2376 17.1285 30.5931 17.2506 30.9334H5.92C6.16963 29.7851 7.12025 28.9174 8.29062 28.8111ZM18.5096 30.9333C18.3059 30.5887 18.1867 30.1812 18.1867 29.8133C18.1867 29.2236 18.4192 28.6922 18.8188 28.3039C18.8952 28.2331 18.9766 28.1677 19.0626 28.1085C19.1459 28.1091 19.2298 28.0917 19.3067 28.0533C20.48 27.4133 21.8667 28 22.2934 29.1733C22.3467 29.3333 22.5067 29.4933 22.7734 29.4933C22.824 29.4933 22.88 29.4772 22.9363 29.4486C23.0701 29.4266 23.1759 29.3284 23.2534 29.1733C23.4601 28.7341 23.7801 28.3835 24.1696 28.1377C24.2536 28.1142 24.3258 28.0727 24.3832 28.0164C24.7496 27.8323 25.1648 27.7333 25.6001 27.7333C27.0934 27.7333 28.2668 28.9066 28.2668 30.4C28.2668 30.56 28.2668 30.7733 28.2134 30.9333H18.5096Z" fill="currentColor"/>
<path d="M17.6002 13.8667C17.2802 13.8667 17.0669 14.08 17.0669 14.4V15.4667C17.0669 15.7867 17.2802 16 17.6002 16C17.9202 16 18.1335 15.7867 18.1335 15.4667V14.4C18.1335 14.08 17.9202 13.8667 17.6002 13.8667Z" fill="#F85B01"/>
<path d="M17.6002 23.4667C17.2802 23.4667 17.0669 23.68 17.0669 24V25.0667C17.0669 25.3867 17.2802 25.6 17.6002 25.6C17.9202 25.6 18.1335 25.3867 18.1335 25.0667V24C18.1335 23.68 17.9202 23.4667 17.6002 23.4667Z" fill="#F85B01"/>
<path d="M17.6002 17.0667C17.2802 17.0667 17.0669 17.28 17.0669 17.6V18.6667C17.0669 18.9867 17.2802 19.2 17.6002 19.2C17.9202 19.2 18.1335 18.9867 18.1335 18.6667V17.6C18.1335 17.28 17.9202 17.0667 17.6002 17.0667Z" fill="#F85B01"/>
<path d="M17.6002 20.2667C17.2802 20.2667 17.0669 20.48 17.0669 20.8V21.8667C17.0669 22.1867 17.2802 22.4 17.6002 22.4C17.9202 22.4 18.1335 22.1867 18.1335 21.8667V20.8C18.1335 20.48 17.9202 20.2667 17.6002 20.2667Z" fill="#F85B01"/>
<path d="M17.6002 10.6667C17.2802 10.6667 17.0669 10.88 17.0669 11.2V12.2667C17.0669 12.5867 17.2802 12.8 17.6002 12.8C17.9202 12.8 18.1335 12.5867 18.1335 12.2667V11.2C18.1335 10.88 17.9202 10.6667 17.6002 10.6667Z" fill="#F85B01"/>
<path d="M20.7999 16C21.1199 16 21.3332 15.7867 21.3332 15.4667V14.4C21.3332 14.08 21.1199 13.8667 20.7999 13.8667C20.4799 13.8667 20.2666 14.08 20.2666 14.4V15.4667C20.2666 15.7867 20.4799 16 20.7999 16Z" fill="#F85B01"/>
<path d="M20.7999 12.8C21.1199 12.8 21.3332 12.5867 21.3332 12.2667V11.2C21.3332 10.88 21.1199 10.6667 20.7999 10.6667C20.4799 10.6667 20.2666 10.88 20.2666 11.2V12.2667C20.2666 12.5867 20.4799 12.8 20.7999 12.8Z" fill="#F85B01"/>
<path d="M20.7999 19.2C21.1199 19.2 21.3332 18.9867 21.3332 18.6667V17.6C21.3332 17.28 21.1199 17.0667 20.7999 17.0667C20.4799 17.0667 20.2666 17.28 20.2666 17.6V18.6667C20.2666 18.9867 20.4799 19.2 20.7999 19.2Z" fill="#F85B01"/>
<path d="M20.7999 22.4C21.1199 22.4 21.3332 22.1867 21.3332 21.8667V20.8C21.3332 20.48 21.1199 20.2667 20.7999 20.2667C20.4799 20.2667 20.2666 20.48 20.2666 20.8V21.8667C20.2666 22.1867 20.4799 22.4 20.7999 22.4Z" fill="#F85B01"/>
<path d="M20.7999 25.6C21.1199 25.6 21.3332 25.3867 21.3332 25.0667V24C21.3332 23.68 21.1199 23.4667 20.7999 23.4667C20.4799 23.4667 20.2666 23.68 20.2666 24V25.0667C20.2666 25.3867 20.4799 25.6 20.7999 25.6Z" fill="#F85B01"/>
<path d="M24.0001 19.2C24.3201 19.2 24.5334 18.9867 24.5334 18.6667V17.6C24.5334 17.28 24.3201 17.0667 24.0001 17.0667C23.6801 17.0667 23.4668 17.28 23.4668 17.6V18.6667C23.4668 18.9867 23.6801 19.2 24.0001 19.2Z" fill="#F85B01"/>
<path d="M24.0001 16C24.3201 16 24.5334 15.7867 24.5334 15.4667V14.4C24.5334 14.08 24.3201 13.8667 24.0001 13.8667C23.6801 13.8667 23.4668 14.08 23.4668 14.4V15.4667C23.4668 15.7867 23.6801 16 24.0001 16Z" fill="#F85B01"/>
<path d="M24.0001 25.6C24.3201 25.6 24.5334 25.3867 24.5334 25.0667V24C24.5334 23.68 24.3201 23.4667 24.0001 23.4667C23.6801 23.4667 23.4668 23.68 23.4668 24V25.0667C23.4668 25.3867 23.6801 25.6 24.0001 25.6Z" fill="#F85B01"/>
<path d="M24.0001 22.4C24.3201 22.4 24.5334 22.1867 24.5334 21.8667V20.8C24.5334 20.48 24.3201 20.2667 24.0001 20.2667C23.6801 20.2667 23.4668 20.48 23.4668 20.8V21.8667C23.4668 22.1867 23.6801 22.4 24.0001 22.4Z" fill="#F85B01"/>
<path d="M24.0001 12.8C24.3201 12.8 24.5334 12.5867 24.5334 12.2667V11.2C24.5334 10.88 24.3201 10.6667 24.0001 10.6667C23.6801 10.6667 23.4668 10.88 23.4668 11.2V12.2667C23.4668 12.5867 23.6801 12.8 24.0001 12.8Z" fill="#F85B01"/>
<path d="M5.86681 20.2667C6.18681 20.2667 6.40012 20.0534 6.40012 19.7334V18.6667C6.40012 18.3467 6.18681 18.1334 5.86681 18.1334C5.54681 18.1334 5.3335 18.3467 5.3335 18.6667V19.7334C5.33343 20.0533 5.54681 20.2667 5.86681 20.2667Z" fill="#F85B01"/>
<path d="M5.86681 23.4667C6.18681 23.4667 6.40012 23.2534 6.40012 22.9334V21.8667C6.40012 21.5467 6.18681 21.3334 5.86681 21.3334C5.54681 21.3334 5.3335 21.5467 5.3335 21.8667V22.9334C5.33343 23.2533 5.54681 23.4667 5.86681 23.4667Z" fill="#F85B01"/>
<path d="M5.86681 26.6667C6.18681 26.6667 6.40012 26.4534 6.40012 26.1334V25.0667C6.40012 24.7467 6.18681 24.5334 5.86681 24.5334C5.54681 24.5334 5.3335 24.7467 5.3335 25.0667V26.1334C5.33343 26.4533 5.54681 26.6667 5.86681 26.6667Z" fill="#F85B01"/>
<path d="M5.86681 4.26667C6.18681 4.26667 6.40012 4.05336 6.40012 3.73336V2.66667C6.40012 2.34667 6.18681 2.13336 5.86681 2.13336C5.54681 2.13336 5.3335 2.34667 5.3335 2.66667V3.73336C5.33343 4.0533 5.54681 4.26667 5.86681 4.26667Z" fill="#F85B01"/>
<path d="M5.86681 7.46669C6.18681 7.46669 6.40012 7.25337 6.40012 6.93337V5.86669C6.40012 5.54669 6.18681 5.33337 5.86681 5.33337C5.54681 5.33337 5.3335 5.54669 5.3335 5.86669V6.93337C5.33343 7.25331 5.54681 7.46669 5.86681 7.46669Z" fill="#F85B01"/>
<path d="M5.86681 10.6667C6.18681 10.6667 6.40012 10.4534 6.40012 10.1334V9.0667C6.40012 8.7467 6.18681 8.53339 5.86681 8.53339C5.54681 8.53339 5.3335 8.7467 5.3335 9.0667V10.1334C5.33343 10.4533 5.54681 10.6667 5.86681 10.6667Z" fill="#F85B01"/>
<path d="M5.86681 13.8667C6.18681 13.8667 6.40012 13.6534 6.40012 13.3334V12.2667C6.40012 11.9467 6.18681 11.7334 5.86681 11.7334C5.54681 11.7334 5.3335 11.9467 5.3335 12.2667V13.3334C5.33343 13.6533 5.54681 13.8667 5.86681 13.8667Z" fill="#F85B01"/>
<path d="M5.86681 17.0667C6.18681 17.0667 6.40012 16.8533 6.40012 16.5333V15.4667C6.40012 15.1467 6.18681 14.9333 5.86681 14.9333C5.54681 14.9333 5.3335 15.1467 5.3335 15.4667V16.5333C5.33343 16.8533 5.54681 17.0667 5.86681 17.0667Z" fill="#F85B01"/>
<path d="M9.06652 7.46669C9.38652 7.46669 9.59983 7.25337 9.59983 6.93337V5.86669C9.59983 5.54669 9.38652 5.33337 9.06652 5.33337C8.74652 5.33337 8.5332 5.54669 8.5332 5.86669V6.93337C8.53314 7.25331 8.74652 7.46669 9.06652 7.46669Z" fill="#F85B01"/>
<path d="M9.06652 4.26667C9.38652 4.26667 9.59983 4.05336 9.59983 3.73336V2.66667C9.59983 2.34667 9.38652 2.13336 9.06652 2.13336C8.74652 2.13336 8.5332 2.34667 8.5332 2.66667V3.73336C8.53314 4.0533 8.74652 4.26667 9.06652 4.26667Z" fill="#F85B01"/>
<path d="M9.06652 13.8667C9.38652 13.8667 9.59983 13.6534 9.59983 13.3334V12.2667C9.59983 11.9467 9.38652 11.7334 9.06652 11.7334C8.74652 11.7334 8.5332 11.9467 8.5332 12.2667V13.3334C8.53314 13.6533 8.74652 13.8667 9.06652 13.8667Z" fill="#F85B01"/>
<path d="M9.06652 10.6667C9.38652 10.6667 9.59983 10.4534 9.59983 10.1334V9.0667C9.59983 8.7467 9.38652 8.53339 9.06652 8.53339C8.74652 8.53339 8.5332 8.7467 8.5332 9.0667V10.1334C8.53314 10.4533 8.74652 10.6667 9.06652 10.6667Z" fill="#F85B01"/>
<path d="M9.06652 17.0667C9.38652 17.0667 9.59983 16.8533 9.59983 16.5333V15.4667C9.59983 15.1467 9.38652 14.9333 9.06652 14.9333C8.74652 14.9333 8.5332 15.1467 8.5332 15.4667V16.5333C8.53314 16.8533 8.74652 17.0667 9.06652 17.0667Z" fill="#F85B01"/>
<path d="M9.06652 20.2667C9.38652 20.2667 9.59983 20.0534 9.59983 19.7334V18.6667C9.59983 18.3467 9.38652 18.1334 9.06652 18.1334C8.74652 18.1334 8.5332 18.3467 8.5332 18.6667V19.7334C8.53314 20.0533 8.74652 20.2667 9.06652 20.2667Z" fill="#F85B01"/>
<path d="M9.06652 23.4667C9.38652 23.4667 9.59983 23.2534 9.59983 22.9334V21.8667C9.59983 21.5467 9.38652 21.3334 9.06652 21.3334C8.74652 21.3334 8.5332 21.5467 8.5332 21.8667V22.9334C8.53314 23.2533 8.74652 23.4667 9.06652 23.4667Z" fill="#F85B01"/>
<path d="M12.2667 10.6667C12.5867 10.6667 12.8 10.4534 12.8 10.1334V9.0667C12.8 8.7467 12.5867 8.53339 12.2667 8.53339C11.9467 8.53339 11.7334 8.7467 11.7334 9.0667V10.1334C11.7333 10.4533 11.9467 10.6667 12.2667 10.6667Z" fill="#F85B01"/>
<path d="M12.2667 7.46669C12.5867 7.46669 12.8 7.25337 12.8 6.93337V5.86669C12.8 5.54669 12.5867 5.33337 12.2667 5.33337C11.9467 5.33337 11.7334 5.54669 11.7334 5.86669V6.93337C11.7333 7.25331 11.9467 7.46669 12.2667 7.46669Z" fill="#F85B01"/>
<path d="M12.2667 4.26667C12.5867 4.26667 12.8 4.05336 12.8 3.73336V2.66667C12.8 2.34667 12.5867 2.13336 12.2667 2.13336C11.9467 2.13336 11.7334 2.34667 11.7334 2.66667V3.73336C11.7333 4.0533 11.9467 4.26667 12.2667 4.26667Z" fill="#F85B01"/>
<path d="M12.2667 23.4667C12.5867 23.4667 12.8 23.2534 12.8 22.9334V21.8667C12.8 21.5467 12.5867 21.3334 12.2667 21.3334C11.9467 21.3334 11.7334 21.5467 11.7334 21.8667V22.9334C11.7333 23.2533 11.9467 23.4667 12.2667 23.4667Z" fill="#F85B01"/>
<path d="M12.2667 20.2667C12.5867 20.2667 12.8 20.0534 12.8 19.7334V18.6667C12.8 18.3467 12.5867 18.1334 12.2667 18.1334C11.9467 18.1334 11.7334 18.3467 11.7334 18.6667V19.7334C11.7333 20.0533 11.9467 20.2667 12.2667 20.2667Z" fill="#F85B01"/>
<path d="M12.2667 17.0667C12.5867 17.0667 12.8 16.8533 12.8 16.5333V15.4667C12.8 15.1467 12.5867 14.9333 12.2667 14.9333C11.9467 14.9333 11.7334 15.1467 11.7334 15.4667V16.5333C11.7333 16.8533 11.9467 17.0667 12.2667 17.0667Z" fill="#F85B01"/>
<path d="M12.2667 13.8667C12.5867 13.8667 12.8 13.6534 12.8 13.3334V12.2667C12.8 11.9467 12.5867 11.7334 12.2667 11.7334C11.9467 11.7334 11.7334 11.9467 11.7334 12.2667V13.3334C11.7333 13.6533 11.9467 13.8667 12.2667 13.8667Z" fill="#F85B01"/>
<path d="M15.4669 7.46669C15.7869 7.46669 16.0002 7.25337 16.0002 6.93337V5.86669C16.0002 5.54669 15.7869 5.33337 15.4669 5.33337C15.1469 5.33337 14.9336 5.54669 14.9336 5.86669V6.93337C14.9335 7.25331 15.1469 7.46669 15.4669 7.46669Z" fill="#F85B01"/>
<path d="M15.4669 4.26667C15.7869 4.26667 16.0002 4.05336 16.0002 3.73336V2.66667C16.0002 2.34667 15.7869 2.13336 15.4669 2.13336C15.1469 2.13336 14.9336 2.34667 14.9336 2.66667V3.73336C14.9335 4.0533 15.1469 4.26667 15.4669 4.26667Z" fill="#F85B01"/>
</g>
<defs>
<clipPath id="clip0_136_4375">
<rect width="32" height="32" fill="white"/>
</clipPath>
</defs>
</svg>
