<svg width="65" height="59" viewBox="0 0 65 59" fill="none" xmlns="http://www.w3.org/2000/svg">
<mask id="mask0_426_205" style="mask-type:luminance" maskUnits="userSpaceOnUse" x="7" y="0" width="58" height="57">
<path d="M64.0356 0H7.03558V57H64.0356V0Z" fill="white"/>
</mask>
<g mask="url(#mask0_426_205)">
<path d="M61.4193 29.335H37.3168C36.6291 29.335 36.003 29.6021 35.5356 30.0374C35.0682 29.6021 34.4421 29.335 33.7543 29.335H9.65179C8.2092 29.335 7.03558 30.5085 7.03558 31.9512V33.0645C7.03558 33.7704 7.60992 34.3446 8.31586 34.3446H8.70551V52.8251C8.70551 55.1272 10.5783 57 12.8803 57H30.5258C32.8279 57 34.7005 55.1272 34.7005 52.8251V34.3446H35.0903C35.247 34.3446 35.3966 34.3151 35.5356 34.2632C35.6745 34.3151 35.8241 34.3446 35.9809 34.3446H36.3706V52.8251C36.3706 55.1272 38.2433 57 40.5453 57H58.1909C60.4929 57 62.3657 55.1272 62.3657 52.8251V34.3446H62.7552C63.4613 34.3446 64.0356 33.7704 64.0356 33.0645V31.9512C64.0356 30.5085 62.8619 29.335 61.4193 29.335ZM33.0308 52.8251C33.0308 54.2063 31.907 55.3301 30.5258 55.3301H12.8803C11.4991 55.3301 10.3754 54.2063 10.3754 52.8251V34.3446H33.0308V52.8251ZM34.7005 32.6749H8.70551V31.9512C8.70551 31.4294 9.13 31.0048 9.65179 31.0048H33.7543C34.2761 31.0048 34.7005 31.4294 34.7005 31.9512V32.6749ZM60.6957 52.8251C60.6957 54.2063 59.5719 55.3301 58.1909 55.3301H40.5453C39.1642 55.3301 38.0404 54.2063 38.0404 52.8251V34.3446H60.6957V52.8251ZM62.3657 32.6749H36.3706V31.9512C36.3706 31.4294 36.7951 31.0048 37.3168 31.0048H61.4193C61.9412 31.0048 62.3657 31.4294 62.3657 31.9512V32.6749ZM41.1727 43.9812C41.5783 44.2347 42.0359 44.361 42.4951 44.3586L43.4449 52.0319H42.936C42.4746 52.0319 42.1009 52.4056 42.1009 52.867C42.1009 53.3281 42.4746 53.7018 42.936 53.7018H55.8005C56.2617 53.7018 56.6354 53.3281 56.6354 52.867C56.6354 52.4056 56.2617 52.0319 55.8005 52.0319H55.2914L56.2414 44.3585C56.2458 44.3585 56.2505 44.3588 56.2549 44.3588C56.7095 44.3588 57.1619 44.2322 57.5636 43.9812C58.2919 43.5263 58.7267 42.7422 58.7267 41.8834C58.7267 40.9449 58.1817 40.0724 57.3383 39.6608L50.1596 36.156C49.6566 35.9104 49.0795 35.9102 48.5766 36.156L41.398 39.6608C40.5546 40.0724 40.0095 40.9449 40.0095 41.8834C40.0095 42.7422 40.4444 43.5263 41.1727 43.9812ZM50.4687 52.0314H48.2676V48.3766H50.4687V52.0314ZM53.6087 52.0314H52.1386V47.9871C52.1386 47.281 51.5643 46.7067 50.8582 46.7067H47.878C47.172 46.7067 46.5977 47.281 46.5977 47.9871V52.0314H45.1276L44.1137 43.8396L49.3682 41.2744L54.6227 43.8396L53.6087 52.0314ZM42.1305 41.1613L49.3089 37.6567C49.3465 37.6383 49.3894 37.6382 49.427 37.6565L56.6056 41.1613C56.8796 41.2951 57.0566 41.5785 57.0566 41.8832C57.0566 42.2853 56.7925 42.4937 56.6788 42.5648C56.5652 42.6356 56.262 42.7817 55.9004 42.6054L49.9471 39.6989C49.7631 39.6088 49.5654 39.5639 49.3679 39.5639C49.1705 39.5639 48.973 39.6088 48.7892 39.6987L42.8355 42.6054C42.4739 42.7817 42.1707 42.6356 42.0571 42.5648C41.9436 42.4939 41.6793 42.2853 41.6793 41.8832C41.6796 41.5786 41.8565 41.2953 42.1305 41.1613ZM13.5076 43.9812C13.9093 44.2322 14.3618 44.3588 14.8163 44.3588C14.8209 44.3588 14.8253 44.3586 14.8299 44.3586L15.7797 52.0319H15.2707C14.8096 52.0319 14.4358 52.4056 14.4358 52.867C14.4358 53.3281 14.8096 53.7018 15.2707 53.7018H28.1352C28.5964 53.7018 28.9703 53.3281 28.9703 52.867C28.9703 52.4056 28.5964 52.0319 28.1352 52.0319H27.6263L28.5761 44.3585C29.0353 44.361 29.4929 44.2347 29.8983 43.9814C30.6266 43.5264 31.0614 42.7422 31.0614 41.8836C31.0614 40.9451 30.5166 40.0726 29.6731 39.661L22.4945 36.156C21.9914 35.9105 21.4145 35.9105 20.9113 36.1562L13.7327 39.661C12.8894 40.0726 12.3445 40.9451 12.3445 41.8836C12.3446 42.7422 12.7794 43.5264 13.5076 43.9812ZM22.8037 52.0314H20.6026V48.3766H22.8037V52.0314ZM25.9437 52.0314H24.4735V47.9871C24.4735 47.281 23.8991 46.7067 23.1932 46.7067H20.2128C19.5069 46.7067 18.9326 47.281 18.9326 47.9871V52.0314H17.4625L16.4485 43.8396L21.7031 41.2744L26.9576 43.8396L25.9437 52.0314ZM14.4655 41.1613L21.644 37.6567C21.6815 37.6383 21.7246 37.6382 21.7621 37.6565L28.9407 41.1613C29.2145 41.2951 29.3915 41.5785 29.3915 41.8832C29.3915 42.2853 29.1274 42.4937 29.0137 42.5648C28.9001 42.6356 28.5969 42.7817 28.2355 42.6054L22.2821 39.6987C22.0981 39.6088 21.9005 39.5639 21.7029 39.5639C21.5055 39.5639 21.308 39.6088 21.124 39.6987L15.1704 42.6054C14.8091 42.7817 14.5059 42.6356 14.3923 42.5648C14.2786 42.4937 14.0144 42.2853 14.0144 41.8832C14.0145 41.5786 14.1915 41.2953 14.4655 41.1613ZM22.1484 5.00977H22.538V23.4902C22.538 25.7923 24.4108 27.665 26.7129 27.665H44.3583C46.6604 27.665 48.5332 25.7923 48.5332 23.4902V5.00977H48.9227C49.6287 5.00977 50.2031 4.43542 50.2031 3.72949V2.61621C50.2031 1.17362 49.0294 0 47.5868 0H23.4843C22.0417 0 20.8681 1.17362 20.8681 2.61621V3.72949C20.8681 4.43542 21.4424 5.00977 22.1484 5.00977ZM46.8633 23.4902C46.8633 24.8714 45.7395 25.9952 44.3583 25.9952H26.7129C25.3315 25.9952 24.2079 24.8714 24.2079 23.4902V5.00977H46.8633V23.4902ZM22.538 2.61621C22.538 2.09441 22.9625 1.66992 23.4843 1.66992H47.5868C48.1087 1.66992 48.5332 2.09441 48.5332 2.61621V3.33984H22.538V2.61621ZM27.3402 14.6463C27.7419 14.8971 28.1943 15.024 28.6487 15.024C28.6534 15.024 28.658 15.0236 28.6625 15.0236L29.6122 22.697H29.1033C28.6421 22.697 28.2683 23.0708 28.2683 23.5319C28.2683 23.9933 28.6421 24.367 29.1033 24.367H41.9679C42.429 24.367 42.8027 23.9933 42.8027 23.5319C42.8027 23.0708 42.429 22.697 41.9679 22.697H41.4588L42.4087 15.0235C42.8677 15.0261 43.3253 14.8997 43.7309 14.6462C44.4593 14.1913 44.8941 13.4071 44.8941 12.5485C44.8941 11.61 44.349 10.7375 43.5056 10.3258L36.327 6.82096C35.824 6.57548 35.247 6.57538 34.744 6.82108L27.5654 10.3258C26.7221 10.7375 26.1771 11.61 26.1771 12.5485C26.1771 13.4071 26.6119 14.1914 27.3402 14.6463ZM36.6362 22.6965H34.4351V19.0417H36.6362V22.6965ZM39.7762 22.6965H38.3061V18.652C38.3061 17.9461 37.7317 17.3717 37.0258 17.3717H34.0454C33.3395 17.3717 32.7652 17.9461 32.7652 18.652V22.6965H31.295L30.2811 14.5047L35.5356 11.9394L40.7901 14.5047L39.7762 22.6965ZM28.298 11.8263L35.4764 8.32166C35.514 8.3033 35.5571 8.30319 35.5945 8.32156L42.7732 11.8263C43.0473 11.9601 43.2242 12.2435 43.2242 12.5484C43.2242 12.9503 42.96 13.1588 42.8464 13.2298C42.7327 13.3007 42.4296 13.4467 42.0681 13.2703L36.1147 10.3638C35.9307 10.2738 35.7331 10.2289 35.5354 10.2289C35.338 10.2289 35.1405 10.2738 34.9565 10.3638L29.003 13.2703C28.6418 13.4468 28.3384 13.3007 28.2248 13.2298C28.1112 13.1588 27.847 12.9503 27.847 12.5484C27.847 12.2436 28.0241 11.9602 28.298 11.8263Z" fill="currentColor"/>
</g>
</svg>
