<svg width="14" height="20" viewBox="0 0 14 20" fill="none" xmlns="http://www.w3.org/2000/svg">
<path d="M7 0.5C8.72391 0.5 10.3777 1.18433 11.5967 2.40332C12.8157 3.62231 13.5 5.27609 13.5 7C13.5 8.16015 12.9665 9.79659 11.8096 11.9453C10.7272 13.9555 9.12552 16.3622 7 19.1709C4.87448 16.3622 3.2728 13.9555 2.19043 11.9453C1.03345 9.79659 0.5 8.16015 0.5 7C0.5 5.27609 1.18433 3.62231 2.40332 2.40332C3.62231 1.18433 5.27609 0.5 7 0.5ZM7 2.5C5.80653 2.5 4.66227 2.97445 3.81836 3.81836C2.97445 4.66227 2.5 5.80653 2.5 7C2.5 8.19347 2.97445 9.33773 3.81836 10.1816C4.60964 10.9729 5.66494 11.4391 6.77734 11.4941L7 11.5C8.19347 11.5 9.33773 11.0256 10.1816 10.1816C11.0256 9.33773 11.5 8.19347 11.5 7L11.4941 6.77734C11.4391 5.66494 10.9729 4.60964 10.1816 3.81836C9.33773 2.97445 8.19347 2.5 7 2.5Z" fill="black" stroke="white"/>
</svg>
